<?xml version="1.0" encoding="utf-8"?>
<svg version="1.1" xmlns="http://www.w3.org/2000/svg" xmlns:xlink="http://www.w3.org/1999/xlink" x="0px" y="0px"
	 width="24px" height="24px" viewBox="-307 229 24 24" enable-background="new -307 229 24 24" xml:space="preserve" aria-label="Click to Chat">
<g>
	<path fill="#FFFFFF" d="M-287,233h-16c-1.657,0-3,1.343-3,3v10c0,1.657,1.343,3,3,3v4l4.878-4H-287
		c1.657,0,3-1.343,3-3v-10C-284,234.343-285.343,233-287,233z M-286,247.031h-13.02l-1.98,2.375c0,0,0.032-2.375-0.051-2.375
		c-1.763,0-2.949,0-2.949,0V235h18V247.031z M-290,239h-10v1h10V239z M-290,242h-10v1h10V242z"/>
</g>
</svg>
