<?xml version="1.0" encoding="utf-8"?>
<svg xmlns="http://www.w3.org/2000/svg" width="29px" height="27px" viewBox="0 0 29 27" aria-label="Video Chat">
  <path fill="#FFF" d="M18.352 5.352c.91 0 1.648.74 1.648 1.648v1.504c0 1.253 1.018 2.272 2.27 2.272.437 0 .863-.126 1.232-.365L25 9c.002 2.136.003 5.933 0 8l-1.706-1.537c-.352-.243-.765-.37-1.192-.37-1.16 0-2.102.942-2.102 2.1V19c0 1.103-.897 2-2 2H5c-1.103 0-2-.897-2-2V7.352c0-1.103.897-2 2-2h13.352m0-2H5c-2.21 0-4 1.79-4 4V19c0 2.21 1.79 4 4 4h13c2.21 0 4-1.79 4-4v-1.806c0-.06.05-.102.102-.102.02 0 .04.006.057.018l2.83 1.95s.89.787 1.482.787c.296 0 .518-.196.518-.786 0-1.767.02-10.332 0-12-.006-.555-.23-.74-.526-.74-.593 0-1.473.74-1.473.74s-1.753 1.14-2.575 1.673c-.046.03-.096.044-.145.044-.14 0-.27-.114-.27-.273V7c0-2.015-1.633-3.648-3.648-3.648z"/>
  <path fill="#FFF" d="M7.5 8.5c.55 0 1 .45 1 1s-.45 1-1 1-1-.45-1-1 .45-1 1-1m0-1.5C6.12 7 5 8.12 5 9.5S6.12 12 7.5 12 10 10.88 10 9.5 8.88 7 7.5 7z"/>
</svg>
